<svg width="45" height="48" viewBox="0 0 45 48" fill="none" xmlns="http://www.w3.org/2000/svg">
<path fill-rule="evenodd" clip-rule="evenodd" d="M43.5 25.5H39C39 25.1192 39.0021 24.7542 39.0042 24.4015C39.0198 21.7431 39.0313 19.79 38.0884 17.0808C38.6694 16.0161 39 14.796 39 13.5V10.5C39 8.01872 36.9813 6 34.5 6H28.5C28.5 2.69156 25.8084 0 22.5 0C19.1916 0 16.5 2.69156 16.5 6H10.5C8.01872 6 6 8.01872 6 10.5V13.5C6 14.796 6.33056 16.0161 6.91162 17.0808C5.96851 19.7905 5.98006 21.7455 5.99576 24.4007C5.99784 24.7536 6 25.1189 6 25.5H1.5C0.671625 25.5 0 26.1716 0 27V36C0 39.6786 2.66278 42.7448 6.16153 43.378C6.78609 46.0241 9.16584 48 12 48H33C35.8342 48 38.2139 46.0241 38.8385 43.378C42.3372 42.7448 45 39.6786 45 36V27C45 26.1716 44.3284 25.5 43.5 25.5ZM22.5 3C24.1542 3 25.5 4.34578 25.5 6H19.5C19.5 4.34578 20.8458 3 22.5 3ZM10.5 9C9.67294 9 9 9.67294 9 10.5V13.5C9 15.9813 11.0187 18 13.5 18H14.25V17.25C14.25 16.4216 14.9216 15.75 15.75 15.75C16.5784 15.75 17.25 16.4216 17.25 17.25V18H27.75V17.25C27.75 16.4216 28.4216 15.75 29.25 15.75C30.0784 15.75 30.75 16.4216 30.75 17.25V18H31.5C33.9813 18 36 15.9813 36 13.5V10.5C36 9.67294 35.3271 9 34.5 9H10.5ZM3 36V28.5H6V40.2429C4.25391 39.6239 3 37.9556 3 36ZM9 42C9 43.6542 10.3458 45 12 45H33C34.6542 45 36 43.6542 36 42C36 37.6857 36.0037 34.2777 36.0067 31.5717V31.5716C36.0168 22.3017 36.0179 21.2717 35.8296 20.2777C35.806 20.1534 35.7795 20.0298 35.7497 19.8906L35.7497 19.8906C35.737 19.8315 35.7237 19.7695 35.7098 19.7035C33.7834 21.0151 32.0449 21.0063 30.948 21.0007C30.8794 21.0003 30.8134 21 30.75 21V21.75C30.75 22.5784 30.0784 23.25 29.25 23.25C28.4216 23.25 27.75 22.5784 27.75 21.75V21H17.25V21.75C17.25 22.5784 16.5784 23.25 15.75 23.25C14.9216 23.25 14.25 22.5784 14.25 21.75V21H13.5C11.9407 21 10.4912 20.5212 9.29016 19.7035L9.2863 19.7218C9.24625 19.9119 9.21139 20.0772 9.1811 20.2434C8.97803 21.3573 8.97959 22.5085 8.9916 31.3746V31.3747V31.3751C8.9953 34.1085 9 37.5751 9 42ZM42 36C42 37.9556 40.7461 39.6239 39 40.2429V28.5H42V36ZM31.5 28.5H13.5C12.6716 28.5 12 29.1716 12 30V37.5C12 39.9813 14.0187 42 16.5 42H28.5C30.9813 42 33 39.9813 33 37.5V30C33 29.1716 32.3284 28.5 31.5 28.5ZM30 37.5C30 38.3271 29.3271 39 28.5 39H16.5C15.6729 39 15 38.3271 15 37.5V31.5H30V37.5Z" fill="#F39F8B"/>
</svg>
