<svg width="375" height="432" viewBox="0 0 375 432" fill="none" xmlns="http://www.w3.org/2000/svg">
<g filter="url(#filter0_d)">
<path d="M23 62.4C23 48.9587 23 42.2381 25.6158 37.1042C27.9168 32.5883 31.5883 28.9168 36.1042 26.6158C41.2381 24 47.9587 24 61.4 24H313.6C327.041 24 333.762 24 338.896 26.6158C343.412 28.9168 347.083 32.5883 349.384 37.1042C352 42.2381 352 48.9587 352 62.4V360H23V62.4Z" fill="#9B9B9B"/>
</g>
<mask id="mask0" mask-type="alpha" maskUnits="userSpaceOnUse" x="23" y="24" width="329" height="336">
<path d="M23 62.4C23 48.9587 23 42.2381 25.6158 37.1042C27.9168 32.5883 31.5883 28.9168 36.1042 26.6158C41.2381 24 47.9587 24 61.4 24H313.6C327.041 24 333.762 24 338.896 26.6158C343.412 28.9168 347.083 32.5883 349.384 37.1042C352 42.2381 352 48.9587 352 62.4V360H23V62.4Z" fill="white"/>
</mask>
<g mask="url(#mask0)">
</g>
<defs>
<filter id="filter0_d" x="-25" y="0" width="425" height="432" filterUnits="userSpaceOnUse" color-interpolation-filters="sRGB">
<feFlood flood-opacity="0" result="BackgroundImageFix"/>
<feColorMatrix in="SourceAlpha" type="matrix" values="0 0 0 0 0 0 0 0 0 0 0 0 0 0 0 0 0 0 127 0"/>
<feOffset dy="24"/>
<feGaussianBlur stdDeviation="24"/>
<feColorMatrix type="matrix" values="0 0 0 0 0.2 0 0 0 0 0.0352941 0 0 0 0 0 0 0 0 0.08 0"/>
<feBlend mode="normal" in2="BackgroundImageFix" result="effect1_dropShadow"/>
<feBlend mode="normal" in="SourceGraphic" in2="effect1_dropShadow" result="shape"/>
</filter>
</defs>
</svg>
