<svg width="48" height="47" viewBox="0 0 48 47" fill="none" xmlns="http://www.w3.org/2000/svg">
<path fill-rule="evenodd" clip-rule="evenodd" d="M48 36.0396C48 33.1753 45.6869 30.8449 42.8438 30.8449H39.6136C40.9824 27.4119 41.2031 23.6066 40.1815 19.9378L37.4336 10.0697L33.1054 14.6229L24 0L14.8945 14.6229L10.5663 10.0697L7.81847 19.9378C6.79688 23.6065 7.01766 27.4118 8.38641 30.8448H5.15625C2.31309 30.8448 0 33.1752 0 36.0395C0 38.8725 2.26284 41.1815 5.06306 41.2319C4.97278 42.047 5.07581 42.8775 5.37609 43.6651C5.86997 44.9604 6.83494 45.9844 8.09325 46.5485C8.76384 46.8492 9.47494 47 10.1876 47C10.8121 47 11.4379 46.8841 12.0383 46.6518L24 42.0229L35.9617 46.6518C36.5622 46.8841 37.1878 47 37.8124 47C38.525 47 39.2362 46.8492 39.9067 46.5485C41.1651 45.9844 42.13 44.9605 42.6239 43.6651C42.9242 42.8775 43.0272 42.047 42.9369 41.2319C45.7372 41.1815 48 38.8726 48 36.0396ZM10.5264 20.7032L11.9433 15.6148L15.3593 19.2084L24 5.33194L32.6407 19.2085L36.0567 15.6149L37.4736 20.7033C38.661 24.9674 37.8351 29.4534 35.2076 33.0109C34.7663 33.6086 34.2842 34.163 33.7683 34.6737L33.0845 34.4091C33.4975 32.8098 33.489 31.1115 33.0299 29.4625L31.2864 23.2013L28.8258 25.7898L24 18.0398L19.1742 25.7897L16.7136 23.2012L14.9701 29.4624C14.5109 31.1114 14.5025 32.8096 14.9155 34.409L14.2317 34.6736C13.7158 34.1629 13.2338 33.6085 12.7924 33.0108C10.1649 29.4532 9.339 24.9673 10.5264 20.7032ZM24.1719 38.6496C26.1907 38.6131 28.0443 37.6498 29.2578 36.0067C30.4915 34.3362 30.8794 32.2298 30.3219 30.2278L29.9094 28.7465L28.3611 30.3753L24 23.3717L19.639 30.3752L18.0907 28.7464L17.6782 30.2277C17.1207 32.2298 17.5086 34.3362 18.7423 36.0067C19.9558 37.6498 21.8094 38.6131 23.8278 38.6496C23.9427 38.6516 24.0576 38.6516 24.1719 38.6496ZM2.8125 36.0396C2.8125 34.7377 3.86391 33.6784 5.15625 33.6784H9.83653C10.0568 34.0258 10.289 34.3678 10.5359 34.7022C10.8094 35.0726 11.0963 35.4286 11.3944 35.7716L8.34056 36.9533C7.53609 37.2646 6.837 37.7618 6.28922 38.401H5.15625C3.86391 38.4009 2.8125 37.3416 2.8125 36.0396ZM9.23663 43.9598C9.80859 44.2161 10.4454 44.2328 11.0298 44.0067L19.254 40.8241C17.2202 40.2321 15.3241 39.2521 13.6554 37.9317L9.34912 39.5982C8.76469 39.8244 8.30269 40.2662 8.04816 40.8425C7.79363 41.4187 7.77713 42.0603 8.00156 42.6491C8.226 43.2379 8.66466 43.7033 9.23663 43.9598ZM39.9984 42.6492C39.7739 43.238 39.3353 43.7034 38.7634 43.9599C38.1914 44.2163 37.5547 44.2329 36.9702 44.0068L28.746 40.8242C30.7799 40.2322 32.676 39.2523 34.3447 37.9319L38.651 39.5984C39.2354 39.8246 39.6974 40.2664 39.9519 40.8427C40.2064 41.4188 40.2229 42.0604 39.9984 42.6492ZM41.7107 38.4009H42.8438C44.1361 38.4009 45.1875 37.3415 45.1875 36.0395C45.1875 34.7376 44.1361 33.6783 42.8438 33.6783H38.1634C37.9431 34.0258 37.7109 34.3677 37.464 34.7021C37.1905 35.0725 36.9037 35.4286 36.6055 35.7715L39.6593 36.9533C40.4639 37.2646 41.1629 37.7617 41.7107 38.4009Z" fill="#F39F8B"/>
</svg>
