<svg width="48" height="48" viewBox="0 0 48 48" fill="none" xmlns="http://www.w3.org/2000/svg">
<path fill-rule="evenodd" clip-rule="evenodd" d="M46.1473 45.1854H46.5947C47.3708 45.1854 48 45.8155 48 46.5927C48 47.3699 47.3708 48 46.5947 48H1.40528C0.629189 48 0 47.3699 0 46.5927C0 45.8155 0.629189 45.1855 1.40528 45.1855H1.82967V12.0341C1.82967 11.2569 2.45886 10.6268 3.23494 10.6268H11.9077V1.40727C11.9077 0.63008 12.5369 0 13.313 0H34.664C35.4401 0 36.0693 0.63008 36.0693 1.40727V26.5848H44.742C45.5181 26.5848 46.1473 27.2149 46.1473 27.992V45.1854ZM43.3367 33.0995V29.3993H36.0693V33.0995H43.3367ZM11.9076 27.9061H4.64022V21.8289H11.9076V27.9061ZM11.9076 30.7206H4.64022V36.7979H11.9076V30.7206ZM11.9077 13.4413V19.0142H4.64022V13.4413H11.9077ZM11.9076 39.6124H4.64022V45.1854H11.9076V39.6124ZM14.7183 2.81453H33.2588V45.1855H30.2835V37.2924C30.2835 36.5152 29.6543 35.8851 28.8782 35.8851H19.0988C18.3227 35.8851 17.6935 36.5152 17.6935 37.2924V45.1855H14.7183V2.81453ZM20.5041 38.6996V45.1854H27.4729V38.6996H20.5041ZM36.0692 45.1854V35.914H43.3366V45.1854H36.0692ZM29.0455 8.5393H18.9313C18.1552 8.5393 17.526 7.90922 17.526 7.13203C17.526 6.35484 18.1552 5.72476 18.9313 5.72476H29.0455C29.8216 5.72476 30.4508 6.35484 30.4508 7.13203C30.4508 7.90922 29.8216 8.5393 29.0455 8.5393ZM18.9313 14.4915H29.0455C29.8216 14.4915 30.4508 13.8614 30.4508 13.0842C30.4508 12.307 29.8216 11.6769 29.0455 11.6769H18.9313C18.1552 11.6769 17.526 12.307 17.526 13.0842C17.526 13.8614 18.1552 14.4915 18.9313 14.4915ZM29.0455 20.4438H18.9313C18.1552 20.4438 17.526 19.8138 17.526 19.0366C17.526 18.2594 18.1552 17.6293 18.9313 17.6293H29.0455C29.8216 17.6293 30.4508 18.2594 30.4508 19.0366C30.4508 19.8138 29.8216 20.4438 29.0455 20.4438ZM18.9313 26.3961H29.0455C29.8216 26.3961 30.4508 25.766 30.4508 24.9888C30.4508 24.2117 29.8216 23.5816 29.0455 23.5816H18.9313C18.1552 23.5816 17.526 24.2117 17.526 24.9888C17.526 25.766 18.1552 26.3961 18.9313 26.3961ZM29.0455 32.3484H18.9313C18.1552 32.3484 17.526 31.7183 17.526 30.9411C17.526 30.1639 18.1552 29.5338 18.9313 29.5338H29.0455C29.8216 29.5338 30.4508 30.1639 30.4508 30.9411C30.4508 31.7183 29.8216 32.3484 29.0455 32.3484Z" fill="#F39F8B"/>
</svg>
