<svg width="48" height="48" viewBox="0 0 48 48" fill="none" xmlns="http://www.w3.org/2000/svg">
<path fill-rule="evenodd" clip-rule="evenodd" d="M7.03125 0C3.15422 0 0 3.15422 0 7.03125C0 10.9083 3.15422 14.0625 7.03125 14.0625C10.9083 14.0625 14.0625 10.9083 14.0625 7.03125C14.0625 3.15422 10.9083 0 7.03125 0ZM7.03125 11.25C4.70503 11.25 2.8125 9.35747 2.8125 7.03125C2.8125 4.70503 4.70503 2.8125 7.03125 2.8125C9.35747 2.8125 11.25 4.70503 11.25 7.03125C11.25 9.35747 9.35747 11.25 7.03125 11.25ZM46.5938 45.1875H36.75V39.4848C43.0553 38.7922 47.9907 33.4517 47.9906 26.9062V24.0937C47.9906 21.7675 46.1075 19.875 43.7812 19.875C41.455 19.875 39.5625 21.7675 39.5625 24.0938V26.9062C39.5625 28.7395 38.3868 30.3026 36.75 30.8831V9.84375C36.75 7.51753 34.8575 5.625 32.5312 5.625C30.205 5.625 28.3125 7.51753 28.3125 9.84375V22.4466C26.6755 21.8662 25.4906 20.3022 25.4906 18.4688V12.6562C25.4906 10.33 23.6075 8.4375 21.2812 8.4375C18.955 8.4375 17.0625 10.33 17.0625 12.6562V18.4687C17.0625 21.8493 18.3789 25.0276 20.7694 27.418C22.8251 29.4738 25.4638 30.7353 28.3125 31.0482V40.3106C26.5641 38.7437 24.2884 38.01 22.099 38.1791C20.9922 35.6594 18.4244 33.9375 15.5625 33.9375C12.7006 33.9375 10.1328 35.6594 9.02597 38.1791C4.24612 37.8099 0 41.6522 0 46.5938C0 47.3704 0.629625 48 1.40625 48H46.5938C47.3704 48 48 47.3704 48 46.5938C48 45.8171 47.3704 45.1875 46.5938 45.1875ZM36.75 33.796C39.9555 33.1428 42.375 30.3019 42.375 26.9062V24.0938C42.375 23.3183 43.0058 22.6875 43.7812 22.6875C44.5567 22.6875 45.1875 23.3183 45.1875 24.0938V26.9062C45.1875 31.8997 41.4898 35.9766 36.75 36.6504V33.796ZM9.67491 41.1186C6.56297 40.4143 3.71531 42.3818 2.99053 45.1874H28.1346C27.4088 42.3777 24.5576 40.4152 21.4502 41.1185C21.0855 41.2011 20.7029 41.135 20.3871 40.9348C20.0711 40.7347 19.848 40.417 19.7669 40.052C19.3418 38.1387 17.5736 36.75 15.5625 36.75C13.5514 36.75 11.7832 38.1387 11.3581 40.0521C11.277 40.4171 11.0539 40.7347 10.738 40.9349C10.4222 41.135 10.0394 41.2011 9.67491 41.1186ZM31.125 45.1875V29.7188C31.125 28.9421 30.4954 28.3125 29.7188 28.3125C27.0893 28.3125 24.6173 27.2886 22.7581 25.4293C20.8988 23.5701 19.8656 21.0981 19.8656 18.4687V12.6562C19.8656 11.8808 20.5058 11.25 21.2812 11.25C22.0567 11.25 22.6875 11.8808 22.6875 12.6562V18.4688C22.6875 22.3458 25.8417 25.5 29.7188 25.5C30.4948 25.5 31.125 24.8703 31.125 24.0938V9.84375C31.125 9.06834 31.7558 8.4375 32.5312 8.4375C33.3067 8.4375 33.9375 9.06834 33.9375 9.84375V45.1875H31.125Z" fill="#F39F8B"/>
</svg>
