<svg width="298" height="226" viewBox="0 0 298 226" fill="none" xmlns="http://www.w3.org/2000/svg">
<rect x="21.1598" y="3.53125" width="276.84" height="211.875" rx="14.1065" fill="#F39F8B"/>
<rect x="10.5798" y="8.82812" width="283.893" height="211.875" rx="10.5799" fill="white"/>
<path fill-rule="evenodd" clip-rule="evenodd" d="M0 22.5704C0 14.67 0 10.7198 1.53752 7.70229C2.88996 5.04798 5.04798 2.88996 7.70229 1.53752C10.7198 0 14.67 0 22.5704 0H139.654C147.555 0 151.505 0 154.523 1.53752C157.034 2.81702 159.101 4.81755 160.462 7.27721V7.0625C160.462 7.13638 160.463 7.21 160.465 7.28333C160.541 7.42155 160.615 7.56122 160.687 7.70229C161.203 8.71396 161.545 9.83047 161.773 11.1655C163.053 12.9572 165.147 14.125 167.515 14.125H275.43C283.33 14.125 287.28 14.125 290.298 15.6625C292.952 17.015 295.11 19.173 296.462 21.8273C298 24.8448 298 28.795 298 36.6954V203.43C298 211.33 298 215.28 296.462 218.298C295.11 220.952 292.952 223.11 290.298 224.462C287.28 226 283.33 226 275.43 226H22.5704C14.67 226 10.7198 226 7.70229 224.462C5.04798 223.11 2.88996 220.952 1.53752 218.298C0 215.28 0 211.33 0 203.43V36.6954C0 36.2204 0 35.7596 0.000334234 35.3125C0 34.8654 0 34.4046 0 33.9296V22.5704Z" fill="#D8D8D8"/>
<mask id="mask0" mask-type="alpha" maskUnits="userSpaceOnUse" x="0" y="0" width="298" height="226">
<path fill-rule="evenodd" clip-rule="evenodd" d="M0 22.5704C0 14.67 0 10.7198 1.53752 7.70229C2.88996 5.04798 5.04798 2.88996 7.70229 1.53752C10.7198 0 14.67 0 22.5704 0H139.654C147.555 0 151.505 0 154.523 1.53752C157.034 2.81702 159.101 4.81755 160.462 7.27721V7.0625C160.462 7.13638 160.463 7.21 160.465 7.28333C160.541 7.42155 160.615 7.56122 160.687 7.70229C161.203 8.71396 161.545 9.83047 161.773 11.1655C163.053 12.9572 165.147 14.125 167.515 14.125H275.43C283.33 14.125 287.28 14.125 290.298 15.6625C292.952 17.015 295.11 19.173 296.462 21.8273C298 24.8448 298 28.795 298 36.6954V203.43C298 211.33 298 215.28 296.462 218.298C295.11 220.952 292.952 223.11 290.298 224.462C287.28 226 283.33 226 275.43 226H22.5704C14.67 226 10.7198 226 7.70229 224.462C5.04798 223.11 2.88996 220.952 1.53752 218.298C0 215.28 0 211.33 0 203.43V36.6954C0 36.2204 0 35.7596 0.000334234 35.3125C0 34.8654 0 34.4046 0 33.9296V22.5704Z" fill="white"/>
</mask>
<g mask="url(#mask0)">
</g>
</svg>
