<svg width="24" height="24" viewBox="0 0 24 24" fill="none" xmlns="http://www.w3.org/2000/svg">
<path fill-rule="evenodd" clip-rule="evenodd" d="M24 14.8125C24 17.5264 21.771 19.7344 19.0312 19.7344H15.5156V22.5938H19.0312C19.4196 22.5938 19.7344 22.9086 19.7344 23.2969C19.7344 23.6852 19.4196 24 19.0312 24H4.96875C4.58044 24 4.26562 23.6852 4.26562 23.2969C4.26562 22.9086 4.58044 22.5938 4.96875 22.5938H8.48438V19.7344H4.96875C2.22895 19.7344 0 17.5264 0 14.8125C0 13.2045 0.800578 11.707 2.09616 10.7952C1.64705 10.1142 1.40625 9.31814 1.40625 8.48438C1.40625 6.67716 2.58872 5.08087 4.28752 4.49827C4.52311 1.97836 6.6308 0 9.1875 0C10.2295 0 11.1968 0.328641 11.9933 0.888516C12.816 0.312891 13.7972 0 14.8125 0C17.3692 0 19.4769 1.97836 19.7125 4.49827C21.4113 5.08087 22.5938 6.67716 22.5938 8.48438C22.5938 9.31814 22.353 10.1142 21.9038 10.7952C23.1994 11.707 24 13.2045 24 14.8125ZM18.3212 5.02678C18.356 2.9932 16.7356 1.40625 14.8125 1.40625C14.1855 1.40625 13.5768 1.5735 13.0436 1.88423C13.62 2.61698 13.9961 3.51708 14.0876 4.49948C15.7592 5.08027 16.9219 6.67491 16.9219 8.48438C16.9219 9.31814 16.6811 10.1142 16.232 10.7952C17.5275 11.707 18.3281 13.2045 18.3281 14.8125C18.3281 16.1885 17.7603 17.4341 16.8471 18.3281H19.0312C20.9956 18.3281 22.5938 16.751 22.5938 14.8125C22.5938 13.4525 21.789 12.2023 20.5434 11.6276C20.0974 11.4218 19.9947 10.8322 20.345 10.4878C20.8883 9.95362 21.1875 9.24211 21.1875 8.48438C21.1875 7.15533 20.2195 5.9962 18.8857 5.72822C18.5529 5.66138 18.3154 5.3662 18.3212 5.02678ZM14.1094 22.5938H9.89062V19.7344H14.1094V22.5938ZM9.89062 18.3281H13.4062C15.3448 18.3281 16.9219 16.751 16.9219 14.8125C16.9219 13.4525 16.1171 12.2023 14.8715 11.6276C14.4255 11.4218 14.3228 10.8322 14.6731 10.4878C15.2164 9.95362 15.5156 9.24211 15.5156 8.48438C15.5156 7.14984 14.5673 5.99072 13.2607 5.72822C12.9167 5.65912 12.6527 5.33977 12.7029 4.9327C12.6839 2.98481 11.1142 1.40625 9.1875 1.40625C7.2608 1.40625 5.69114 2.98486 5.67206 4.93275C5.72273 5.34403 5.45438 5.65992 5.1143 5.72822C3.78052 5.99616 2.8125 7.15533 2.8125 8.48438C2.8125 9.24211 3.1117 9.95363 3.65498 10.4879C4.00528 10.8323 3.90267 11.4218 3.45661 11.6276C2.21105 12.2023 1.40625 13.4525 1.40625 14.8125C1.40625 16.751 3.00436 18.3281 4.96875 18.3281H8.48438V16.51L5.8778 13.9034C5.6032 13.6288 5.6032 13.1836 5.8778 12.909C6.15239 12.6345 6.59761 12.6345 6.87216 12.909L8.48438 14.5213V10.885L5.8778 8.27845C5.6032 8.00386 5.6032 7.55869 5.8778 7.28409C6.15239 7.0095 6.59761 7.0095 6.87216 7.28409L8.48438 8.89627V4.96875C8.48438 4.58044 8.79919 4.26562 9.1875 4.26562C9.57581 4.26562 9.89062 4.58044 9.89062 4.96875V11.7088L11.5028 10.0966C11.7774 9.822 12.2226 9.822 12.4972 10.0966C12.7717 10.3712 12.7717 10.8164 12.4972 11.091L9.89062 13.6975V18.3281Z" fill="white"/>
</svg>
