<svg width="48" height="48" viewBox="0 0 48 48" fill="none" xmlns="http://www.w3.org/2000/svg">
<path fill-rule="evenodd" clip-rule="evenodd" d="M48 29.625C48 35.0528 43.5421 39.4688 38.0625 39.4688H31.0312V45.1875H38.0625C38.8391 45.1875 39.4688 45.8171 39.4688 46.5938C39.4688 47.3704 38.8391 48 38.0625 48H9.9375C9.16088 48 8.53125 47.3704 8.53125 46.5938C8.53125 45.8171 9.16088 45.1875 9.9375 45.1875H16.9688V39.4688H9.9375C4.45791 39.4688 0 35.0528 0 29.625C0 26.4091 1.60116 23.414 4.19231 21.5903C3.29409 20.2283 2.8125 18.6363 2.8125 16.9688C2.8125 13.3543 5.17744 10.1617 8.57503 8.99653C9.04622 3.95672 13.2616 0 18.375 0C20.459 0 22.3937 0.657281 23.9866 1.77703C25.632 0.625781 27.5945 0 29.625 0C34.7384 0 38.9538 3.95672 39.425 8.99653C42.8226 10.1617 45.1875 13.3543 45.1875 16.9688C45.1875 18.6363 44.7059 20.2283 43.8077 21.5903C46.3988 23.414 48 26.4091 48 29.625ZM36.6425 10.0536C36.7119 5.98641 33.4713 2.8125 29.625 2.8125C28.371 2.8125 27.1536 3.147 26.0872 3.76847C27.2399 5.23397 27.9922 7.03416 28.1752 8.99897C31.5184 10.1605 33.8438 13.3498 33.8438 16.9688C33.8438 18.6363 33.3622 20.2283 32.4639 21.5903C35.0551 23.414 36.6562 26.4091 36.6562 29.625C36.6562 32.3769 35.5207 34.8682 33.6941 36.6562H38.0625C41.9913 36.6562 45.1875 33.502 45.1875 29.625C45.1875 26.9049 43.5779 24.4046 41.0868 23.2552C40.1947 22.8436 39.9894 21.6645 40.69 20.9756C41.7766 19.9072 42.375 18.4842 42.375 16.9688C42.375 14.3107 40.439 11.9924 37.7715 11.4564C37.1058 11.3228 36.6307 10.7324 36.6425 10.0536ZM28.2188 45.1875H19.7812V39.4688H28.2188V45.1875ZM19.7812 36.6562H26.8125C30.6895 36.6562 33.8438 33.502 33.8438 29.625C33.8438 26.9049 32.2342 24.4046 29.743 23.2552C28.851 22.8436 28.6457 21.6645 29.3463 20.9756C30.4328 19.9072 31.0312 18.4842 31.0312 16.9688C31.0312 14.2997 29.1346 11.9814 26.5214 11.4564C25.8334 11.3182 25.3055 10.6795 25.4059 9.86541C25.3677 5.96962 22.2284 2.8125 18.375 2.8125C14.5216 2.8125 11.3823 5.96972 11.3441 9.8655C11.4455 10.6881 10.9088 11.3198 10.2286 11.4564C7.56103 11.9923 5.625 14.3107 5.625 16.9688C5.625 18.4842 6.22341 19.9073 7.30997 20.9757C8.01056 21.6645 7.80534 22.8436 6.91322 23.2553C4.42209 24.4046 2.8125 26.9049 2.8125 29.625C2.8125 33.502 6.00872 36.6562 9.9375 36.6562H16.9688V33.02L11.7556 27.8068C11.2064 27.2576 11.2064 26.3673 11.7556 25.8181C12.3048 25.2689 13.1952 25.2689 13.7443 25.8181L16.9688 29.0425V21.77L11.7556 16.5569C11.2064 16.0077 11.2064 15.1174 11.7556 14.5682C12.3048 14.019 13.1952 14.019 13.7443 14.5682L16.9688 17.7925V9.9375C16.9688 9.16088 17.5984 8.53125 18.375 8.53125C19.1516 8.53125 19.7812 9.16088 19.7812 9.9375V23.4175L23.0056 20.1932C23.5548 19.644 24.4452 19.644 24.9943 20.1932C25.5435 20.7424 25.5435 21.6327 24.9943 22.1819L19.7812 27.395V36.6562Z" fill="#F39F8B"/>
</svg>
