<svg width="48" height="36" viewBox="0 0 48 36" fill="none" xmlns="http://www.w3.org/2000/svg">
<path fill-rule="evenodd" clip-rule="evenodd" d="M36.7434 4.24122C37.9164 4.24122 38.8673 3.29179 38.8673 2.12061C38.8673 0.949428 37.9164 0 36.7434 0C35.5704 0 34.6196 0.949428 34.6196 2.12061C34.6196 3.29179 35.5704 4.24122 36.7434 4.24122ZM24 8.48253C25.173 8.48253 26.1239 7.5331 26.1239 6.36192C26.1239 5.19074 25.173 4.24131 24 4.24131C22.8271 4.24131 21.8762 5.19074 21.8762 6.36192C21.8762 7.5331 22.8271 8.48253 24 8.48253ZM44.3894 13.7841C42.6903 16.753 38.6549 17.8133 35.6814 16.1168C34.6195 15.4806 33.9823 14.8445 33.3451 13.7841C32.4956 12.5117 30.3716 12.5117 29.5221 13.7841C27.823 16.753 23.7876 17.8133 20.8141 16.1168C19.7521 15.4806 19.115 14.8445 18.4778 13.7841C17.6283 12.5117 15.5043 12.5117 14.6548 13.7841C12.9556 16.753 8.92026 17.8133 5.94677 16.1168C4.88479 15.4806 4.24762 14.8445 3.61046 13.7841L0 15.9047C1.91151 19.0857 5.3097 21.2063 9.13272 21.2063C11.8937 21.2063 14.6549 19.9339 16.5664 18.0253C20.6018 22.0545 27.1859 22.2666 31.2213 18.2373L31.4336 18.0253C35.6814 22.0545 42.2655 22.0545 46.5133 17.8133C47.1505 17.1771 47.5753 16.5409 48 15.9047L44.3894 13.7841ZM44.3894 28.6286C43.3275 30.5371 41.2036 31.8095 38.8673 31.8095C36.531 31.8095 34.4071 30.5371 33.3451 28.6286C32.4956 27.3562 30.3716 27.3562 29.5221 28.6286C27.823 31.5975 23.7876 32.6577 20.8141 30.9613C19.7521 30.3251 19.115 29.6889 18.4778 28.6286C17.6283 27.3562 15.5043 27.3562 14.6548 28.6286C12.9556 31.5975 8.92026 32.6577 5.94677 30.9613C4.88479 30.3251 4.24762 29.6889 3.61046 28.6286L0 30.7493C2.97349 35.8388 9.55753 37.3232 14.6549 34.3544C14.7932 34.2623 14.9415 34.1702 15.0933 34.076C15.6409 33.7361 16.2338 33.3681 16.5664 32.87C20.6018 36.8992 27.1859 37.1113 31.2213 33.082L31.4336 32.87C35.6814 36.8992 42.2655 36.8992 46.5133 32.6579C47.1505 32.0217 47.5753 31.3856 48 30.7494L44.3894 28.6286ZM40.9911 10.6031C40.9911 11.7743 40.0403 12.7237 38.8673 12.7237C37.6943 12.7237 36.7434 11.7743 36.7434 10.6031C36.7434 9.43196 37.6943 8.48253 38.8673 8.48253C40.0403 8.48253 40.9911 9.43196 40.9911 10.6031Z" fill="#F39F8B"/>
</svg>
