<svg width="48" height="42" viewBox="0 0 48 42" fill="none" xmlns="http://www.w3.org/2000/svg">
<path fill-rule="evenodd" clip-rule="evenodd" d="M4.53092 13.3722H17.8861C20.3239 13.3722 22.3073 11.3798 22.3073 8.93093V8.26976C22.3073 3.90233 17.84 0.981915 13.9203 2.80656C12.8118 1.01356 10.8898 0 8.90176 0C6.05642 0 3.67475 2.03144 3.11856 4.72651C0.990556 5.41696 -0.333213 7.52337 0.0961377 9.80031C0.498959 11.9368 2.28123 13.3722 4.53092 13.3722ZM3.88455 7.45029C4.06351 7.37966 4.23272 7.34529 4.40202 7.34529C5.1786 7.34529 5.80819 6.71284 5.80819 5.93274C5.80819 4.21921 7.19598 2.82511 8.90176 2.82511C10.3336 2.82511 11.6025 3.84093 11.9187 5.24058C12.1603 6.31045 13.4746 6.70653 14.2628 5.9478C14.8451 5.38739 15.6076 5.08172 16.4179 5.0852C18.1146 5.09405 19.4949 6.52262 19.4949 8.26976V8.93093C19.4949 9.82207 18.7732 10.5471 17.8861 10.5471H4.53092C3.20255 10.5471 2.9156 9.57299 2.85926 9.27447C2.74433 8.665 2.94391 7.82161 3.88455 7.45029ZM32.4829 7.8605L47.8596 39.9752C48.3082 40.9119 47.6271 42 46.5925 42H1.40753C0.377278 42 -0.303121 40.9211 0.135323 39.9857L9.45054 20.1112C10.465 17.9465 13.535 17.949 14.5434 20.12L17.6132 26.7278L27.4555 7.77763C28.5262 5.71709 31.4805 5.76587 32.4829 7.8605ZM35.5117 20.7042L29.9483 9.08471C28.2448 12.3646 27.0155 14.7302 26.1288 16.4362L26.1268 16.4401L26.1268 16.4401L26.1265 16.4406L26.126 16.4416C23.9479 20.6326 23.841 20.8384 23.8539 20.8462C23.8546 20.8466 23.8556 20.8465 23.8566 20.8464C23.858 20.8462 23.8595 20.846 23.8604 20.8471C24.55 21.6389 25.711 21.8347 26.6207 21.3124L27.3603 20.8877C29.0235 19.933 31.0463 20.0032 32.6396 21.0706C33.5564 21.6846 34.7804 21.525 35.5117 20.7042ZM11.995 21.3146L15.9813 29.8953L15.2331 31.3264C15.1098 31.5622 14.7834 31.5852 14.6303 31.3641C13.3583 29.5273 10.6369 29.5488 9.39758 31.4161L9.38613 31.4334C9.30738 31.553 9.23794 31.6583 9.04332 31.6572C8.95557 31.6559 8.83323 31.6259 8.74887 31.4904L7.88004 30.094L11.995 21.3146ZM6.45774 33.1285L3.62375 39.1749L20.2919 39.175L17.4542 33.0665C16.1809 34.7865 13.5669 34.7758 12.3215 32.9775C12.1784 32.7709 11.8765 32.774 11.7375 32.9833C10.3813 35.0274 7.68899 34.8942 6.45774 33.1285ZM23.3955 39.1748L19.1108 29.9517L22.5055 23.4154C24.0803 24.6018 26.2533 24.7772 28.0163 23.765L28.7557 23.3404C29.4877 22.9203 30.378 22.9511 31.0794 23.421C32.8402 24.6002 35.101 24.5274 36.7721 23.3363L44.3556 39.1748H23.3955Z" fill="#F39F8B"/>
</svg>
