<svg width="24" height="20" viewBox="0 0 24 20" fill="none" xmlns="http://www.w3.org/2000/svg">
<path fill-rule="evenodd" clip-rule="evenodd" d="M5.829 4C5.417 5.165 4.305 6 3 6C1.344 6 0 4.656 0 3C0 1.344 1.344 0 3 0C4.305 0 5.417 0.835 5.829 2H19.5C21.984 2 24 4.016 24 6.5C24 8.984 21.984 11 19.5 11H14.829C14.417 12.165 13.305 13 12 13C10.695 13 9.583 12.165 9.171 11H4.5C3.12 11 2 12.12 2 13.5C2 14.88 3.12 16 4.5 16H18.171C18.583 14.835 19.695 14 21 14C22.656 14 24 15.344 24 17C24 18.656 22.656 20 21 20C19.695 20 18.583 19.165 18.171 18H4.5C2.016 18 0 15.984 0 13.5C0 11.016 2.016 9 4.5 9H9.171C9.583 7.835 10.695 7 12 7C13.305 7 14.417 7.835 14.829 9H19.5C20.88 9 22 7.88 22 6.5C22 5.12 20.88 4 19.5 4H5.829ZM12 9C12.552 9 13 9.448 13 10C13 10.552 12.552 11 12 11C11.448 11 11 10.552 11 10C11 9.448 11.448 9 12 9Z" fill="#F39F8B"/>
</svg>
