<svg width="44" height="48" viewBox="0 0 44 48" fill="none" xmlns="http://www.w3.org/2000/svg">
<path fill-rule="evenodd" clip-rule="evenodd" d="M43.8286 45.8985L23.6108 8.45916L27.0438 2.10188C27.4167 1.41123 27.1621 0.547507 26.475 0.172695C25.7878 -0.202305 24.9286 0.0537259 24.5557 0.744382L22 5.47697L19.4444 0.744288C19.0715 0.0536321 18.212 -0.202212 17.5251 0.172601C16.838 0.547413 16.5834 1.41113 16.9563 2.10179L20.3898 8.45991L0.171473 45.8985C-0.0666463 46.3394 -0.0561067 46.8737 0.198988 47.3047C0.454176 47.7358 0.916331 48 1.41551 48H30.6506H42.5846C43.0837 48 43.5459 47.7358 43.8011 47.3047C44.0561 46.8738 44.0666 46.3393 43.8286 45.8985ZM15.7212 45.1545L22 33.5274L28.2787 45.1545H15.7212ZM23.2441 29.8662L31.4999 45.1545H40.2057L22.0005 11.442L3.79447 45.1545H12.5003L20.7561 29.8662C21.0036 29.4077 21.4811 29.1222 22.0001 29.1222C22.5192 29.1222 22.9965 29.4077 23.2441 29.8662ZM23.51 23.937H20.4902C19.7085 23.937 19.0748 24.574 19.0748 25.3598C19.0748 26.1455 19.7085 26.7825 20.4902 26.7825H23.51C24.2917 26.7825 24.9254 26.1455 24.9254 25.3598C24.9254 24.574 24.2917 23.937 23.51 23.937ZM20.4902 19.1627H23.51C24.2917 19.1627 24.9254 19.7997 24.9254 20.5854C24.9254 21.3712 24.2917 22.0082 23.51 22.0082H20.4902C19.7085 22.0082 19.0748 21.3712 19.0748 20.5854C19.0748 19.7997 19.7085 19.1627 20.4902 19.1627Z" fill="#F39F8B"/>
</svg>
